<svg width="26" height="25" viewBox="0 0 26 25" fill="none" xmlns="http://www.w3.org/2000/svg">
<path d="M7.88875 13.0806C7.75203 12.9805 7.63756 12.8531 7.55256 12.7065C7.46757 12.5599 7.41389 12.3972 7.39493 12.2288C7.37597 12.0604 7.39213 11.8899 7.44239 11.7281C7.49266 11.5662 7.57593 11.4166 7.68696 11.2885C7.79799 11.1605 7.93436 11.0569 8.08746 10.9842C8.24056 10.9115 8.40706 10.8714 8.57645 10.8663C8.74584 10.8613 8.91445 10.8914 9.07161 10.9548C9.22878 11.0182 9.3711 11.1134 9.48958 11.2346L11.5375 12.9797V1.44218C11.5375 1.05969 11.6894 0.692869 11.9599 0.422406C12.2303 0.151944 12.5972 0 12.9797 0C13.3622 0 13.729 0.151944 13.9994 0.422406C14.2699 0.692869 14.4218 1.05969 14.4218 1.44218V12.9797L16.4697 11.2058C16.5882 11.0846 16.7305 10.9893 16.8877 10.9259C17.0449 10.8625 17.2135 10.8324 17.3829 10.8375C17.5523 10.8426 17.7188 10.8827 17.8719 10.9554C18.025 11.028 18.1613 11.1316 18.2724 11.2597C18.3834 11.3877 18.4667 11.5374 18.5169 11.6992C18.5672 11.8611 18.5834 12.0316 18.5644 12.2C18.5454 12.3684 18.4918 12.531 18.4068 12.6776C18.3218 12.8242 18.2073 12.9516 18.0706 13.0518L13.744 16.7726C13.6993 16.8067 13.6509 16.8357 13.5998 16.8591C13.5326 16.9061 13.4599 16.9449 13.3835 16.9745H13.1671H12.9364H12.7056H12.4893C12.4128 16.9449 12.3402 16.9061 12.273 16.8591C12.2219 16.8357 12.1735 16.8067 12.1288 16.7726L7.88875 13.0806ZM24.5171 14.4218C24.1346 14.4218 23.7678 14.5738 23.4974 14.8443C23.2269 15.1147 23.075 15.4815 23.075 15.864V20.1906C23.075 20.5731 22.923 20.9399 22.6525 21.2104C22.3821 21.4808 22.0153 21.6328 21.6328 21.6328H4.32655C3.94406 21.6328 3.57724 21.4808 3.30678 21.2104C3.03631 20.9399 2.88437 20.5731 2.88437 20.1906V15.864C2.88437 15.4815 2.73243 15.1147 2.46196 14.8443C2.1915 14.5738 1.82468 14.4218 1.44218 14.4218C1.05969 14.4218 0.692868 14.5738 0.422406 14.8443C0.151944 15.1147 0 15.4815 0 15.864V20.1906C0 21.3381 0.455832 22.4385 1.26722 23.2499C2.0786 24.0613 3.17908 24.5171 4.32655 24.5171H21.6328C22.7802 24.5171 23.8807 24.0613 24.6921 23.2499C25.5035 22.4385 25.9593 21.3381 25.9593 20.1906V15.864C25.9593 15.4815 25.8074 15.1147 25.5369 14.8443C25.2665 14.5738 24.8996 14.4218 24.5171 14.4218Z" fill="#27AAE1"/>
</svg>
