<svg width="24" height="24" viewBox="0 0 24 24" fill="none" xmlns="http://www.w3.org/2000/svg">
<path d="M14.5457 0.1875L14.3532 2.30063H12.0947V9.3382H11.8425C10.3301 9.3382 8.95752 10.1099 8.33342 11.3113L2.40234 22.7275H10.4793L10.9993 21.2166C14.7575 20.2181 15.745 17.0925 15.745 17.0925H20.9793V15.4718L22.0592 15.5466L23.4023 0.801178L14.5457 0.1875ZM20.1716 14.9106C19.376 15.0982 18.7668 15.6736 18.6252 16.3881H14.0337C13.7304 17.7409 12.5829 18.9716 11.0364 19.5225C10.9864 19.5403 10.9347 19.5487 10.8838 19.5487C10.7246 19.5487 10.5737 19.4661 10.5097 19.3297C10.4254 19.1496 10.5244 18.9441 10.7309 18.8705C12.247 18.3304 13.3058 17.02 13.3058 15.6838L13.306 15.3315H17.4119C18.0219 15.3315 18.545 14.9152 18.5559 14.3833C18.567 13.8416 18.0672 13.3998 17.4485 13.3989L10.1761 13.3945C9.95311 13.3945 9.77219 13.2368 9.77219 13.0423C9.77219 12.8477 9.95301 12.69 10.1761 12.69H12.9022V4.4125C13.7227 4.26652 14.3677 3.71152 14.5535 3.005H18.5522C18.7359 3.70535 19.3698 4.25194 20.1716 4.40642V14.9106ZM21.4521 13.3157C21.2872 13.3426 21.1291 13.3869 20.9793 13.445V2.30063H15.441C16.1442 2.13891 16.7123 1.67103 16.9329 1.05949L20.919 1.3357C21.0386 2.04651 21.6207 2.63515 22.4059 2.84445L21.4521 13.3157ZM19.384 9.6153C19.3869 8.26675 18.1521 7.13197 16.5438 7.12937C14.9974 7.12687 13.696 8.25763 13.6932 9.60627C13.6903 10.9548 14.9251 12.0896 16.5334 12.0922C18.0798 12.0947 19.3811 10.9639 19.384 9.6153ZM14.8681 9.82398L14.3732 9.82317L14.3742 9.33767L14.8073 9.33838C14.8077 9.12255 14.932 8.85306 14.9942 8.63741L15.6125 8.80029C15.5504 8.90807 15.4881 9.12372 15.4874 9.44742C15.4869 9.71709 15.6101 9.87916 15.7958 9.87952C15.9814 9.87988 16.1054 9.71816 16.2918 9.34089C16.5403 8.8018 16.7883 8.53249 17.2832 8.53338C17.7161 8.58803 18.0864 8.91227 18.2094 9.34402L18.7043 9.34482L18.7033 9.83033L18.2702 9.82961C18.2697 10.0454 18.1451 10.4767 18.083 10.6385L17.4647 10.4756C17.5888 10.314 17.7131 9.99052 17.7137 9.72076C17.7143 9.39706 17.5911 9.23507 17.3436 9.23472C17.158 9.23436 17.034 9.34214 16.8477 9.71942C16.6611 10.2046 16.3511 10.5818 15.8562 10.5809C15.3613 10.58 14.9907 10.3096 14.8681 9.82398Z" fill="black"/>
</svg>
