<svg width="16" height="19" viewBox="0 0 16 19" fill="none" xmlns="http://www.w3.org/2000/svg">
<path d="M0 16.5466V7.25507H15.3036V16.5466C15.3036 17.4689 14.5521 18.1862 13.664 18.1862H1.63967C0.717358 18.1862 0 17.4689 0 16.5466ZM10.9312 9.85122V11.2176C10.9312 11.4567 11.102 11.6275 11.3411 11.6275H12.7075C12.9124 11.6275 13.1174 11.4567 13.1174 11.2176V9.85122C13.1174 9.64626 12.9124 9.4413 12.7075 9.4413H11.3411C11.102 9.4413 10.9312 9.64626 10.9312 9.85122ZM10.9312 14.2237V15.5901C10.9312 15.8292 11.102 16 11.3411 16H12.7075C12.9124 16 13.1174 15.8292 13.1174 15.5901V14.2237C13.1174 14.0187 12.9124 13.8138 12.7075 13.8138H11.3411C11.102 13.8138 10.9312 14.0187 10.9312 14.2237ZM6.5587 9.85122V11.2176C6.5587 11.4567 6.7295 11.6275 6.96862 11.6275H8.33501C8.53997 11.6275 8.74493 11.4567 8.74493 11.2176V9.85122C8.74493 9.64626 8.53997 9.4413 8.33501 9.4413H6.96862C6.7295 9.4413 6.5587 9.64626 6.5587 9.85122ZM6.5587 14.2237V15.5901C6.5587 15.8292 6.7295 16 6.96862 16H8.33501C8.53997 16 8.74493 15.8292 8.74493 15.5901V14.2237C8.74493 14.0187 8.53997 13.8138 8.33501 13.8138H6.96862C6.7295 13.8138 6.5587 14.0187 6.5587 14.2237ZM2.18623 9.85122V11.2176C2.18623 11.4567 2.35703 11.6275 2.59615 11.6275H3.96255C4.16751 11.6275 4.37247 11.4567 4.37247 11.2176V9.85122C4.37247 9.64626 4.16751 9.4413 3.96255 9.4413H2.59615C2.35703 9.4413 2.18623 9.64626 2.18623 9.85122ZM2.18623 14.2237V15.5901C2.18623 15.8292 2.35703 16 2.59615 16H3.96255C4.16751 16 4.37247 15.8292 4.37247 15.5901V14.2237C4.37247 14.0187 4.16751 13.8138 3.96255 13.8138H2.59615C2.35703 13.8138 2.18623 14.0187 2.18623 14.2237ZM13.664 2.8826C14.5521 2.8826 15.3036 3.63412 15.3036 4.52228V6.16195H0V4.52228C0 3.63412 0.717358 2.8826 1.63967 2.8826H3.27935V1.24293C3.27935 0.969648 3.51847 0.696369 3.82591 0.696369H4.91902C5.1923 0.696369 5.46558 0.969648 5.46558 1.24293V2.8826H9.83805V1.24293C9.83805 0.969648 10.0772 0.696369 10.3846 0.696369H11.4777C11.751 0.696369 12.0243 0.969648 12.0243 1.24293V2.8826H13.664Z" fill="#27AAE1"/>
</svg>
